<?xml version="1.0" standalone="no"?>
<!DOCTYPE svg PUBLIC "-//W3C//DTD SVG 20010904//EN"
 "http://www.w3.org/TR/2001/REC-SVG-20010904/DTD/svg10.dtd">
<svg version="1.0" xmlns="http://www.w3.org/2000/svg"
 width="1508.000000pt" height="1508.000000pt" viewBox="0 0 1508.000000 1508.000000"
 preserveAspectRatio="xMidYMid meet">
<metadata>
Created by potrace 1.11, written by Peter Selinger 2001-2013
</metadata>
<g transform="translate(0.000000,1508.000000) scale(0.100000,-0.100000)"
fill="#000000" stroke="none">
<path d="M7135 14229 c-673 -45 -1349 -201 -1960 -454 -204 -84 -579 -269
-760 -375 -1758 -1031 -2918 -2828 -3139 -4870 -41 -378 -46 -950 -12 -1310
119 -1229 550 -2346 1275 -3308 214 -283 370 -460 642 -727 867 -850 1953
-1427 3135 -1664 683 -138 1443 -157 2133 -55 334 49 716 139 1031 244 785
260 1459 640 2110 1187 156 132 582 558 717 719 914 1088 1430 2372 1524 3794
15 227 6 820 -15 1030 -9 85 -28 234 -42 330 -261 1822 -1292 3448 -2824 4453
-821 538 -1776 882 -2730 982 -336 35 -776 45 -1085 24z m975 -63 c323 -33
620 -84 915 -157 1499 -372 2822 -1311 3692 -2619 600 -902 950 -1904 1055
-3025 20 -219 17 -925 -5 -1140 -74 -711 -227 -1315 -488 -1936 -73 -172 -261
-546 -359 -714 -559 -954 -1340 -1736 -2295 -2295 -178 -104 -533 -279 -740
-365 -188 -78 -538 -197 -750 -255 -310 -84 -734 -158 -1105 -192 -216 -19
-808 -16 -1030 5 -839 83 -1570 296 -2288 667 -1438 744 -2548 2039 -3078
3593 -245 720 -355 1432 -341 2207 6 323 22 525 62 810 280 1942 1438 3657
3124 4624 829 476 1738 746 2726 810 142 9 757 -4 905 -18z"/>
<path d="M7318 13770 c-1017 -47 -1946 -324 -2736 -817 -778 -485 -1519 -1276
-2017 -2153 -426 -749 -680 -1533 -787 -2425 -20 -170 -17 -760 5 -950 69
-592 210 -1143 502 -1975 46 -129 86 -243 90 -252 8 -21 35 -24 53 -6 20 20
14 55 -32 182 -488 1345 -497 2924 -26 4301 56 164 91 237 128 266 32 25 38
24 67 -6 45 -44 29 -135 -56 -338 -120 -287 -272 -943 -308 -1337 -14 -146
-14 -543 -1 -742 47 -699 209 -1687 371 -2261 43 -151 71 -217 94 -217 12 0
15 15 15 73 0 101 -19 205 -120 672 -133 615 -151 738 -170 1191 -34 791 86
1527 371 2276 44 117 105 277 134 356 60 161 91 218 136 256 35 30 65 33 97
10 42 -29 20 -119 -73 -304 -99 -194 -219 -527 -306 -845 -236 -860 -278
-1829 -118 -2700 52 -286 148 -651 215 -828 20 -51 51 -134 70 -186 34 -97 65
-140 119 -168 40 -21 224 -83 247 -83 25 0 23 27 -12 161 -61 233 -114 546
-142 844 -18 189 -17 997 0 1195 37 412 113 832 207 1153 108 363 225 640 438
1037 140 259 177 319 204 337 23 15 28 15 52 2 16 -9 29 -28 35 -51 9 -34 5
-42 -53 -129 -166 -250 -362 -739 -526 -1310 -253 -883 -278 -1848 -75 -2914
46 -241 53 -267 88 -315 71 -99 181 -144 464 -190 128 -21 139 -22 162 -6 44
29 51 78 27 196 -69 339 -75 675 -20 1210 48 476 113 796 253 1246 200 641
379 1053 546 1254 21 25 51 68 69 96 52 85 107 91 148 15 27 -48 39 -104 53
-231 42 -393 236 -1013 485 -1550 85 -184 169 -346 193 -372 35 -40 71 -12 98
79 8 26 28 203 44 393 28 333 29 371 34 1125 6 958 19 1198 82 1545 72 394
235 816 440 1136 65 102 139 133 173 73 24 -44 6 -89 -124 -293 -69 -109 -125
-202 -125 -208 0 -6 10 -2 23 9 12 11 45 32 72 48 28 15 106 65 175 110 476
313 1077 592 1636 759 290 86 616 157 919 200 602 85 968 88 1251 11 213 -58
280 -17 277 170 -2 140 -49 319 -153 580 -128 318 -349 758 -446 888 -178 237
-443 385 -889 497 -647 162 -1400 239 -2047 210z"/>
<path d="M10575 12939 c-12 -18 4 -75 61 -221 385 -987 517 -1972 403 -3018
-63 -586 -166 -1009 -367 -1510 -239 -596 -448 -972 -553 -995 -75 -17 -107
51 -159 337 -83 451 -203 916 -340 1312 -64 184 -126 293 -226 393 -56 57
-102 75 -147 60 -38 -13 -54 -49 -71 -159 -46 -292 -56 -544 -56 -1398 0 -415
-5 -829 -10 -920 -42 -683 -172 -1173 -431 -1615 -87 -149 -135 -214 -172
-235 -27 -14 -29 -14 -48 9 -13 16 -17 31 -13 50 11 45 51 127 94 190 64 95
100 179 100 234 0 26 -1 47 -3 47 -1 0 -36 -32 -77 -72 -106 -102 -252 -207
-460 -332 -637 -383 -1351 -636 -2105 -745 -306 -45 -455 -55 -835 -55 -381 0
-541 10 -855 55 -342 49 -552 102 -995 248 -352 117 -477 168 -550 223 -58 44
-107 56 -152 39 -86 -33 17 -227 284 -536 287 -332 858 -888 1229 -1197 651
-542 1282 -872 2009 -1052 455 -113 825 -156 1331 -156 383 0 648 21 999 81
2084 354 3772 1726 4545 3694 200 509 324 1022 392 1625 25 225 26 959 0 1175
-74 624 -233 1244 -494 1925 -67 174 -103 247 -144 295 -46 53 -89 45 -89 -16
0 -10 26 -85 59 -166 235 -590 362 -1120 428 -1773 24 -246 24 -863 0 -1110
-57 -571 -176 -1106 -351 -1575 -60 -161 -74 -187 -111 -211 -24 -16 -27 -15
-45 1 -11 10 -20 25 -20 33 0 8 29 100 64 206 171 508 269 981 322 1556 22
231 25 810 6 1045 -63 777 -242 1496 -546 2187 -29 68 -66 156 -82 197 -33 87
-81 144 -116 139 -38 -5 -30 -82 21 -198 245 -556 395 -1163 457 -1855 21
-232 24 -795 5 -1025 -36 -451 -85 -794 -151 -1058 -66 -261 -210 -661 -315
-872 -23 -47 -63 -133 -90 -192 -26 -59 -55 -114 -65 -123 -27 -24 -71 -16
-89 17 -15 25 -13 31 41 135 61 118 136 307 223 563 164 482 260 981 307 1600
15 209 15 896 -1 1095 -37 471 -130 916 -277 1322 -149 416 -437 997 -685
1385 -238 372 -347 493 -357 393 -2 -22 31 -97 126 -285 142 -283 214 -450
302 -707 180 -524 284 -1063 321 -1663 15 -234 6 -798 -16 -1010 -73 -718
-250 -1356 -540 -1945 -81 -164 -266 -490 -294 -518 -15 -15 -50 2 -57 28 -5
18 28 93 133 302 76 153 171 359 211 458 241 605 381 1208 433 1865 16 196 16
699 0 890 -67 830 -267 1570 -620 2295 -159 326 -253 476 -385 614 -132 136
-314 244 -341 200z"/>
</g>
</svg>
